<svg xmlns="http://www.w3.org/2000/svg" viewBox="0 0 2200 1200" width="2200" height="1200">
  <defs>
    <!-- Fonts -->
    <style>
      text { font-family: -apple-system, BlinkMacSystemFont, 'Segoe UI', Roboto, sans-serif; }
    </style>
    <!-- Subtle grid line pattern -->
    <linearGradient id="emotionGradient" x1="0" y1="0" x2="1" y2="0">
      <stop offset="0%" stop-color="#7A9A01"/>
      <stop offset="40%" stop-color="#0C4A69"/>
      <stop offset="70%" stop-color="#CF6253"/>
      <stop offset="100%" stop-color="#7A9A01"/>
    </linearGradient>
  </defs>

  <!-- ═══════════════════════════════════════════════════ -->
  <!-- BACKGROUND -->
  <!-- ═══════════════════════════════════════════════════ -->
  <rect width="2200" height="1200" fill="#FAF8F5" rx="0"/>

  <!-- ═══════════════════════════════════════════════════ -->
  <!-- TITLE BAR -->
  <!-- ═══════════════════════════════════════════════════ -->
  <g id="title-bar">
    <text x="160" y="52" font-size="26" font-weight="700" fill="#1C1A17">Customer Journey</text>
    <text x="372" y="52" font-size="26" font-weight="300" fill="#6B6760">│</text>
    <text x="392" y="52" font-size="18" font-weight="400" fill="#6B6760">Template</text>
  </g>

  <!-- ═══════════════════════════════════════════════════ -->
  <!-- COLUMN LAYOUT CONSTANTS -->
  <!-- Row labels: x=20, w=130 -->
  <!-- Steps start at x=160 -->
  <!-- Each step column: 180px wide -->
  <!-- Phase 1: steps 1-3 (x=160..700) -->
  <!-- Phase 2: steps 4-6 (x=700..1240) -->
  <!-- Phase 3: steps 7-9 (x=1240..1780) -->
  <!-- Phase 4: steps 10-11 (x=1780..2140) -->
  <!-- ═══════════════════════════════════════════════════ -->

  <!-- ═══════════════════════════════════════════════════ -->
  <!-- GRID LINES (very subtle) -->
  <!-- ═══════════════════════════════════════════════════ -->
  <g id="grid-lines" opacity="0.35">
    <!-- Horizontal row dividers -->
    <line x1="20" y1="80" x2="2180" y2="80" stroke="#D0CBC3" stroke-width="0.5"/>
    <!-- Phase row bottom -->
    <line x1="160" y1="120" x2="2180" y2="120" stroke="#D0CBC3" stroke-width="0.5"/>
    <!-- Step row bottom -->
    <line x1="160" y1="155" x2="2180" y2="155" stroke="#D0CBC3" stroke-width="0.5"/>
    <!-- Owner row bottom -->
    <line x1="20" y1="210" x2="2180" y2="210" stroke="#D0CBC3" stroke-width="0.5"/>
    <!-- Collaborator row bottom -->
    <line x1="20" y1="275" x2="2180" y2="275" stroke="#D0CBC3" stroke-width="0.5"/>
    <!-- UX Score row bottom -->
    <line x1="20" y1="430" x2="2180" y2="430" stroke="#D0CBC3" stroke-width="0.5"/>
    <!-- Critical Unmet Needs row bottom -->
    <line x1="20" y1="530" x2="2180" y2="530" stroke="#D0CBC3" stroke-width="0.5"/>
    <!-- Pain Points row bottom -->
    <line x1="20" y1="630" x2="2180" y2="630" stroke="#D0CBC3" stroke-width="0.5"/>
    <!-- Opportunities row bottom -->
    <line x1="20" y1="730" x2="2180" y2="730" stroke="#D0CBC3" stroke-width="0.5"/>
    <!-- Workarounds row bottom -->
    <line x1="20" y1="830" x2="2180" y2="830" stroke="#D0CBC3" stroke-width="0.5"/>
    <!-- Touchpoints row bottom -->
    <line x1="20" y1="930" x2="2180" y2="930" stroke="#D0CBC3" stroke-width="0.5"/>
    <!-- Metrics / KPIs row bottom -->
    <line x1="20" y1="1030" x2="2180" y2="1030" stroke="#D0CBC3" stroke-width="0.5"/>
    <!-- Reliance row bottom -->
    <line x1="20" y1="1110" x2="2180" y2="1110" stroke="#D0CBC3" stroke-width="0.5"/>

    <!-- Vertical column dividers -->
    <!-- Row label border -->
    <line x1="155" y1="80" x2="155" y2="1110" stroke="#D0CBC3" stroke-width="0.5"/>
    <!-- Step column dividers -->
    <line x1="340" y1="120" x2="340" y2="1110" stroke="#EBE6DD" stroke-width="0.5"/>
    <line x1="520" y1="120" x2="520" y2="1110" stroke="#EBE6DD" stroke-width="0.5"/>
    <line x1="700" y1="120" x2="700" y2="1110" stroke="#EBE6DD" stroke-width="0.5"/>
    <line x1="880" y1="120" x2="880" y2="1110" stroke="#EBE6DD" stroke-width="0.5"/>
    <line x1="1060" y1="120" x2="1060" y2="1110" stroke="#EBE6DD" stroke-width="0.5"/>
    <line x1="1240" y1="120" x2="1240" y2="1110" stroke="#EBE6DD" stroke-width="0.5"/>
    <line x1="1420" y1="120" x2="1420" y2="1110" stroke="#EBE6DD" stroke-width="0.5"/>
    <line x1="1600" y1="120" x2="1600" y2="1110" stroke="#EBE6DD" stroke-width="0.5"/>
    <line x1="1780" y1="120" x2="1780" y2="1110" stroke="#EBE6DD" stroke-width="0.5"/>
    <line x1="1960" y1="120" x2="1960" y2="1110" stroke="#EBE6DD" stroke-width="0.5"/>

    <!-- Phase separators (stronger) -->
    <line x1="700" y1="80" x2="700" y2="1110" stroke="#E0DCD3" stroke-width="1"/>
    <line x1="1240" y1="80" x2="1240" y2="1110" stroke="#E0DCD3" stroke-width="1"/>
    <line x1="1780" y1="80" x2="1780" y2="1110" stroke="#E0DCD3" stroke-width="1"/>
  </g>

  <!-- ═══════════════════════════════════════════════════ -->
  <!-- ROW LABELS (left column, sticky in HTML) -->
  <!-- ═══════════════════════════════════════════════════ -->
  <g id="row-labels">
    <text x="28" y="105" font-size="11" font-weight="600" fill="#6B6760" letter-spacing="0.5" text-transform="uppercase">Phase</text>
    <text x="28" y="142" font-size="11" font-weight="600" fill="#6B6760" letter-spacing="0.5">Step</text>
    <text x="28" y="190" font-size="11" font-weight="600" fill="#6B6760" letter-spacing="0.5">Owner</text>
    <text x="28" y="245" font-size="11" font-weight="600" fill="#6B6760" letter-spacing="0.5">Collaborators</text>
    <g>
      <text x="28" y="345" font-size="11" font-weight="600" fill="#6B6760" letter-spacing="0.5">UX Score</text>
      <text x="28" y="362" font-size="9" font-weight="400" fill="#B0ABA2">Context: if applicable</text>
    </g>
    <text x="28" y="480" font-size="11" font-weight="600" fill="#6B6760" letter-spacing="0.5">Critical unmet needs</text>
    <text x="28" y="580" font-size="11" font-weight="600" fill="#6B6760" letter-spacing="0.5">Pain Points</text>
    <text x="28" y="680" font-size="11" font-weight="600" fill="#6B6760" letter-spacing="0.5">Opportunities</text>
    <text x="28" y="780" font-size="11" font-weight="600" fill="#6B6760" letter-spacing="0.5">Workarounds</text>
    <text x="28" y="880" font-size="11" font-weight="600" fill="#6B6760" letter-spacing="0.5">Touchpoints</text>
    <text x="28" y="980" font-size="11" font-weight="600" fill="#6B6760" letter-spacing="0.5">Metrics / KPIs</text>
    <g>
      <text x="28" y="1070" font-size="11" font-weight="600" fill="#6B6760" letter-spacing="0.5">Reliance on Spt</text>
      <text x="28" y="1087" font-size="9" font-weight="400" fill="#B0ABA2">if applicable</text>
    </g>
  </g>

  <!-- ═══════════════════════════════════════════════════ -->
  <!-- PHASE HEADER BADGES -->
  <!-- ═══════════════════════════════════════════════════ -->
  <g id="phase-badges">
    <!-- Phase 1 -->
    <rect x="165" y="88" width="90" height="26" rx="13" fill="#013D5B"/>
    <text x="210" y="105" font-size="11" font-weight="600" fill="#FFFFFF" text-anchor="middle" letter-spacing="0.5">PHASE 1</text>

    <!-- Phase 2 -->
    <rect x="705" y="88" width="90" height="26" rx="13" fill="#013D5B"/>
    <text x="750" y="105" font-size="11" font-weight="600" fill="#FFFFFF" text-anchor="middle" letter-spacing="0.5">PHASE 2</text>

    <!-- Phase 3 -->
    <rect x="1245" y="88" width="90" height="26" rx="13" fill="#013D5B"/>
    <text x="1290" y="105" font-size="11" font-weight="600" fill="#FFFFFF" text-anchor="middle" letter-spacing="0.5">PHASE 3</text>

    <!-- Phase 4 -->
    <rect x="1785" y="88" width="90" height="26" rx="13" fill="#013D5B"/>
    <text x="1830" y="105" font-size="11" font-weight="600" fill="#FFFFFF" text-anchor="middle" letter-spacing="0.5">PHASE 4</text>
  </g>

  <!-- ═══════════════════════════════════════════════════ -->
  <!-- STEP LABELS -->
  <!-- ═══════════════════════════════════════════════════ -->
  <g id="step-labels" font-size="11" font-weight="400" fill="#6B6760">
    <!-- Phase 1 steps -->
    <text x="250" y="142" text-anchor="middle">Step 1</text>
    <text x="430" y="142" text-anchor="middle">Step 2</text>
    <text x="610" y="142" text-anchor="middle">Step 3</text>
    <!-- Phase 2 steps -->
    <text x="790" y="142" text-anchor="middle">Step 4</text>
    <text x="970" y="142" text-anchor="middle">Step 5</text>
    <text x="1150" y="142" text-anchor="middle">Step 6</text>
    <!-- Phase 3 steps -->
    <text x="1330" y="142" text-anchor="middle">Step 7</text>
    <text x="1510" y="142" text-anchor="middle">Step 8</text>
    <text x="1690" y="142" text-anchor="middle">Step 9</text>
    <!-- Phase 4 steps -->
    <text x="1870" y="142" text-anchor="middle">Step 10</text>
    <text x="2050" y="142" text-anchor="middle">Step 11</text>
  </g>

  <!-- ═══════════════════════════════════════════════════ -->
  <!-- OWNER BADGES (full-width dark navy pills) -->
  <!-- ═══════════════════════════════════════════════════ -->
  <g id="owner-badges">
    <!-- Step 1: Role A -->
    <rect x="172" y="170" width="156" height="26" rx="13" fill="#013D5B"/>
    <text x="250" y="187" font-size="10" font-weight="600" fill="#FFFFFF" text-anchor="middle">Role A</text>

    <!-- Step 2: Role A (spans) -->
    <rect x="352" y="170" width="156" height="26" rx="13" fill="#013D5B"/>
    <text x="430" y="187" font-size="10" font-weight="600" fill="#FFFFFF" text-anchor="middle">Role A</text>

    <!-- Step 3: Role B -->
    <rect x="532" y="170" width="156" height="26" rx="13" fill="#4A6E82"/>
    <text x="610" y="187" font-size="10" font-weight="600" fill="#FFFFFF" text-anchor="middle">Role B</text>

    <!-- Step 4: Role A -->
    <rect x="712" y="170" width="156" height="26" rx="13" fill="#013D5B"/>
    <text x="790" y="187" font-size="10" font-weight="600" fill="#FFFFFF" text-anchor="middle">Role A</text>

    <!-- Step 5: Role C -->
    <rect x="892" y="170" width="156" height="26" rx="13" fill="#5C7A3D"/>
    <text x="970" y="187" font-size="10" font-weight="600" fill="#FFFFFF" text-anchor="middle">Role C</text>

    <!-- Step 6: Role B -->
    <rect x="1072" y="170" width="156" height="26" rx="13" fill="#4A6E82"/>
    <text x="1150" y="187" font-size="10" font-weight="600" fill="#FFFFFF" text-anchor="middle">Role B</text>

    <!-- Step 7: Role A -->
    <rect x="1252" y="170" width="156" height="26" rx="13" fill="#013D5B"/>
    <text x="1330" y="187" font-size="10" font-weight="600" fill="#FFFFFF" text-anchor="middle">Role A</text>

    <!-- Step 8: Role D -->
    <rect x="1432" y="170" width="156" height="26" rx="13" fill="#805AA1"/>
    <text x="1510" y="187" font-size="10" font-weight="600" fill="#FFFFFF" text-anchor="middle">Role D</text>

    <!-- Step 9: Role B -->
    <rect x="1612" y="170" width="156" height="26" rx="13" fill="#4A6E82"/>
    <text x="1690" y="187" font-size="10" font-weight="600" fill="#FFFFFF" text-anchor="middle">Role B</text>

    <!-- Step 10: Role C -->
    <rect x="1792" y="170" width="156" height="26" rx="13" fill="#5C7A3D"/>
    <text x="1870" y="187" font-size="10" font-weight="600" fill="#FFFFFF" text-anchor="middle">Role C</text>

    <!-- Step 11: Role A -->
    <rect x="1972" y="170" width="156" height="26" rx="13" fill="#013D5B"/>
    <text x="2050" y="187" font-size="10" font-weight="600" fill="#FFFFFF" text-anchor="middle">Role A</text>
  </g>

  <!-- ═══════════════════════════════════════════════════ -->
  <!-- COLLABORATOR BADGES (smaller, lighter pills) -->
  <!-- ═══════════════════════════════════════════════════ -->
  <g id="collaborator-badges">
    <!-- Step 1: Role B -->
    <rect x="192" y="220" width="116" height="20" rx="10" fill="#F4F1EB" stroke="#E0DCD3" stroke-width="0.75"/>
    <text x="250" y="234" font-size="9" font-weight="500" fill="#54514D" text-anchor="middle">Role B</text>

    <!-- Step 2: Role B, Role C -->
    <rect x="372" y="220" width="116" height="20" rx="10" fill="#F4F1EB" stroke="#E0DCD3" stroke-width="0.75"/>
    <text x="430" y="234" font-size="9" font-weight="500" fill="#54514D" text-anchor="middle">Role B</text>
    <rect x="372" y="244" width="116" height="20" rx="10" fill="#F4F1EB" stroke="#E0DCD3" stroke-width="0.75"/>
    <text x="430" y="258" font-size="9" font-weight="500" fill="#54514D" text-anchor="middle">Role C</text>

    <!-- Step 3: Role A -->
    <rect x="552" y="220" width="116" height="20" rx="10" fill="#F4F1EB" stroke="#E0DCD3" stroke-width="0.75"/>
    <text x="610" y="234" font-size="9" font-weight="500" fill="#54514D" text-anchor="middle">Role A</text>

    <!-- Step 4: Role C -->
    <rect x="732" y="220" width="116" height="20" rx="10" fill="#F4F1EB" stroke="#E0DCD3" stroke-width="0.75"/>
    <text x="790" y="234" font-size="9" font-weight="500" fill="#54514D" text-anchor="middle">Role C</text>

    <!-- Step 5: Role A, Role B -->
    <rect x="912" y="220" width="116" height="20" rx="10" fill="#F4F1EB" stroke="#E0DCD3" stroke-width="0.75"/>
    <text x="970" y="234" font-size="9" font-weight="500" fill="#54514D" text-anchor="middle">Role A</text>
    <rect x="912" y="244" width="116" height="20" rx="10" fill="#F4F1EB" stroke="#E0DCD3" stroke-width="0.75"/>
    <text x="970" y="258" font-size="9" font-weight="500" fill="#54514D" text-anchor="middle">Role B</text>

    <!-- Step 6: Role D -->
    <rect x="1092" y="220" width="116" height="20" rx="10" fill="#D1E5C5" stroke="#B8D4A6" stroke-width="0.75"/>
    <text x="1150" y="234" font-size="9" font-weight="500" fill="#54514D" text-anchor="middle">Role D</text>

    <!-- Step 7: Role B -->
    <rect x="1272" y="220" width="116" height="20" rx="10" fill="#F4F1EB" stroke="#E0DCD3" stroke-width="0.75"/>
    <text x="1330" y="234" font-size="9" font-weight="500" fill="#54514D" text-anchor="middle">Role B</text>

    <!-- Step 8: Role A, Role C -->
    <rect x="1452" y="220" width="116" height="20" rx="10" fill="#F4F1EB" stroke="#E0DCD3" stroke-width="0.75"/>
    <text x="1510" y="234" font-size="9" font-weight="500" fill="#54514D" text-anchor="middle">Role A</text>
    <rect x="1452" y="244" width="116" height="20" rx="10" fill="#F4F1EB" stroke="#E0DCD3" stroke-width="0.75"/>
    <text x="1510" y="258" font-size="9" font-weight="500" fill="#54514D" text-anchor="middle">Role C</text>

    <!-- Step 9: (none) -->

    <!-- Step 10: Role A -->
    <rect x="1812" y="220" width="116" height="20" rx="10" fill="#F4F1EB" stroke="#E0DCD3" stroke-width="0.75"/>
    <text x="1870" y="234" font-size="9" font-weight="500" fill="#54514D" text-anchor="middle">Role A</text>

    <!-- Step 11: Role B, Role D -->
    <rect x="1992" y="220" width="116" height="20" rx="10" fill="#F4F1EB" stroke="#E0DCD3" stroke-width="0.75"/>
    <text x="2050" y="234" font-size="9" font-weight="500" fill="#54514D" text-anchor="middle">Role B</text>
    <rect x="1992" y="244" width="116" height="20" rx="10" fill="#F4F1EB" stroke="#E0DCD3" stroke-width="0.75"/>
    <text x="2050" y="258" font-size="9" font-weight="500" fill="#54514D" text-anchor="middle">Role D</text>
  </g>

  <!-- ═══════════════════════════════════════════════════ -->
  <!-- UX SCORE / EMOTION CURVE -->
  <!-- ═══════════════════════════════════════════════════ -->
  <g id="ux-score">
    <!-- Background sentiment bands -->
    <rect x="160" y="280" width="1980" height="50" fill="rgba(122,154,1,0.04)" rx="0"/>
    <rect x="160" y="330" width="1980" height="50" fill="rgba(12,74,105,0.04)" rx="0"/>
    <rect x="160" y="380" width="1980" height="45" fill="rgba(207,98,83,0.04)" rx="0"/>

    <!-- Emotion curve line -->
    <path d="M 250,310 C 340,300 340,295 430,295 C 520,295 520,290 610,305 C 700,320 700,340 790,335 C 880,330 880,365 970,370 C 1060,375 1060,360 1150,355 C 1240,350 1240,345 1330,340 C 1420,335 1420,310 1510,305 C 1600,300 1600,315 1690,320 C 1780,325 1780,300 1870,295 C 1960,290 1960,305 2050,310"
      fill="none" stroke="#0C4A69" stroke-width="2.5" stroke-linecap="round" stroke-linejoin="round"/>

    <!-- Second emotion line (multi-user: Role B perspective) -->
    <path d="M 250,340 C 340,335 340,350 430,355 C 520,355 520,365 610,370 C 700,375 700,360 790,350 C 880,340 880,330 970,325 C 1060,320 1060,335 1150,345 C 1240,355 1240,370 1330,375 C 1420,380 1420,365 1510,355 C 1600,345 1600,340 1690,345 C 1780,350 1780,360 1870,365 C 1960,370 1960,355 2050,345"
      fill="none" stroke="#CF6253" stroke-width="2" stroke-linecap="round" stroke-linejoin="round" stroke-dasharray="6,3"/>

    <!-- Data points - Line 1 (primary) -->
    <circle cx="250" cy="310" r="5" fill="#7A9A01"/>
    <circle cx="430" cy="295" r="5" fill="#7A9A01"/>
    <circle cx="610" cy="305" r="5" fill="#0C4A69"/>
    <circle cx="790" cy="335" r="5" fill="#0C4A69"/>
    <circle cx="970" cy="370" r="5" fill="#CF6253"/>
    <circle cx="1150" cy="355" r="5" fill="#0C4A69"/>
    <circle cx="1330" cy="340" r="5" fill="#0C4A69"/>
    <circle cx="1510" cy="305" r="5" fill="#7A9A01"/>
    <circle cx="1690" cy="320" r="5" fill="#0C4A69"/>
    <circle cx="1870" cy="295" r="5" fill="#7A9A01"/>
    <circle cx="2050" cy="310" r="5" fill="#0C4A69"/>

    <!-- Emoji markers above primary line -->
    <text x="250" y="297" font-size="14" text-anchor="middle">😊</text>
    <text x="430" y="282" font-size="14" text-anchor="middle">😊</text>
    <text x="610" y="292" font-size="14" text-anchor="middle">😐</text>
    <text x="790" y="322" font-size="14" text-anchor="middle">😐</text>
    <text x="970" y="357" font-size="14" text-anchor="middle">😞</text>
    <text x="1150" y="342" font-size="14" text-anchor="middle">😐</text>
    <text x="1330" y="327" font-size="14" text-anchor="middle">😐</text>
    <text x="1510" y="292" font-size="14" text-anchor="middle">😊</text>
    <text x="1690" y="307" font-size="14" text-anchor="middle">😐</text>
    <text x="1870" y="282" font-size="14" text-anchor="middle">😊</text>
    <text x="2050" y="297" font-size="14" text-anchor="middle">😐</text>

    <!-- Data points - Line 2 (secondary, dashed) -->
    <circle cx="250" cy="340" r="4" fill="#CF6253" opacity="0.7"/>
    <circle cx="430" cy="355" r="4" fill="#CF6253" opacity="0.7"/>
    <circle cx="610" cy="370" r="4" fill="#CF6253" opacity="0.7"/>
    <circle cx="790" cy="350" r="4" fill="#CF6253" opacity="0.7"/>
    <circle cx="970" cy="325" r="4" fill="#CF6253" opacity="0.7"/>
    <circle cx="1150" cy="345" r="4" fill="#CF6253" opacity="0.7"/>
    <circle cx="1330" cy="375" r="4" fill="#CF6253" opacity="0.7"/>
    <circle cx="1510" cy="355" r="4" fill="#CF6253" opacity="0.7"/>
    <circle cx="1690" cy="345" r="4" fill="#CF6253" opacity="0.7"/>
    <circle cx="1870" cy="365" r="4" fill="#CF6253" opacity="0.7"/>
    <circle cx="2050" cy="345" r="4" fill="#CF6253" opacity="0.7"/>

    <!-- Legend for multi-user curves (bottom right of UX row) -->
    <g transform="translate(2000, 405)">
      <line x1="0" y1="0" x2="20" y2="0" stroke="#0C4A69" stroke-width="2.5"/>
      <text x="26" y="4" font-size="9" fill="#6B6760">Role A</text>
      <line x1="80" y1="0" x2="100" y2="0" stroke="#CF6253" stroke-width="2" stroke-dasharray="6,3"/>
      <text x="106" y="4" font-size="9" fill="#6B6760">Role B</text>
    </g>
  </g>

  <!-- ═══════════════════════════════════════════════════ -->
  <!-- CRITICAL UNMET NEEDS ROW -->
  <!-- ═══════════════════════════════════════════════════ -->
  <g id="critical-unmet-needs" font-size="10" fill="#54514D">
    <text x="175" y="475" font-weight="400" font-style="italic" fill="#8A7515">Need to........</text>
    <text x="355" y="475" font-weight="400" font-style="italic" fill="#8A7515">Need to........</text>
    <text x="535" y="475" font-weight="400" font-style="italic" fill="#8A7515">Need to........</text>
    <text x="715" y="475" font-weight="400" font-style="italic" fill="#8A7515">Need to........</text>
    <text x="895" y="475" font-weight="400" font-style="italic" fill="#8A7515">Need to........</text>
    <text x="1075" y="475" font-weight="400" font-style="italic" fill="#8A7515">Need to........</text>
    <text x="1255" y="475" font-weight="400" font-style="italic" fill="#8A7515">Need to........</text>
    <text x="1435" y="475" font-weight="400" font-style="italic" fill="#8A7515">Need to........</text>
    <text x="1615" y="475" font-weight="400" font-style="italic" fill="#8A7515">Need to........</text>
    <text x="1795" y="475" font-weight="400" font-style="italic" fill="#8A7515">Need to........</text>
    <text x="1975" y="475" font-weight="400" font-style="italic" fill="#8A7515">Need to........</text>
  </g>

  <!-- ═══════════════════════════════════════════════════ -->
  <!-- PAIN POINTS ROW -->
  <!-- ═══════════════════════════════════════════════════ -->
  <g id="pain-points" font-size="10">
    <!-- Only some steps have pain points -->
    <g transform="translate(175, 565)">
      <text font-size="12">⚠️</text>
      <text x="18" y="1" fill="#BF5547" font-weight="400">Friction in...</text>
    </g>
    <g transform="translate(895, 565)">
      <text font-size="12">⚠️</text>
      <text x="18" y="1" fill="#BF5547" font-weight="400">Confusing...</text>
    </g>
    <g transform="translate(1255, 565)">
      <text font-size="12">⚠️</text>
      <text x="18" y="1" fill="#BF5547" font-weight="400">Slow process...</text>
    </g>
    <g transform="translate(1795, 565)">
      <text font-size="12">⚠️</text>
      <text x="18" y="1" fill="#BF5547" font-weight="400">Missing info...</text>
    </g>
    <!-- Empty cells show dash -->
    <text x="430" y="575" font-size="10" fill="#B0ABA2" text-anchor="middle">—</text>
    <text x="610" y="575" font-size="10" fill="#B0ABA2" text-anchor="middle">—</text>
    <text x="790" y="575" font-size="10" fill="#B0ABA2" text-anchor="middle">—</text>
    <text x="1150" y="575" font-size="10" fill="#B0ABA2" text-anchor="middle">—</text>
    <text x="1510" y="575" font-size="10" fill="#B0ABA2" text-anchor="middle">—</text>
    <text x="1690" y="575" font-size="10" fill="#B0ABA2" text-anchor="middle">—</text>
    <text x="2050" y="575" font-size="10" fill="#B0ABA2" text-anchor="middle">—</text>
  </g>

  <!-- ═══════════════════════════════════════════════════ -->
  <!-- OPPORTUNITIES ROW -->
  <!-- ═══════════════════════════════════════════════════ -->
  <g id="opportunities" font-size="10">
    <g transform="translate(355, 665)">
      <text font-size="12">💡</text>
      <text x="18" y="1" fill="#62800B" font-weight="400">Add guided...</text>
    </g>
    <g transform="translate(715, 665)">
      <text font-size="12">💡</text>
      <text x="18" y="1" fill="#62800B" font-weight="400">Automate...</text>
    </g>
    <g transform="translate(1075, 665)">
      <text font-size="12">💡</text>
      <text x="18" y="1" fill="#62800B" font-weight="400">Simplify...</text>
    </g>
    <g transform="translate(1615, 665)">
      <text font-size="12">💡</text>
      <text x="18" y="1" fill="#62800B" font-weight="400">Integrate...</text>
    </g>
    <!-- Empty cells -->
    <text x="250" y="675" font-size="10" fill="#B0ABA2" text-anchor="middle">—</text>
    <text x="610" y="675" font-size="10" fill="#B0ABA2" text-anchor="middle">—</text>
    <text x="970" y="675" font-size="10" fill="#B0ABA2" text-anchor="middle">—</text>
    <text x="1330" y="675" font-size="10" fill="#B0ABA2" text-anchor="middle">—</text>
    <text x="1870" y="675" font-size="10" fill="#B0ABA2" text-anchor="middle">—</text>
    <text x="2050" y="675" font-size="10" fill="#B0ABA2" text-anchor="middle">—</text>
  </g>

  <!-- ═══════════════════════════════════════════════════ -->
  <!-- WORKAROUNDS ROW -->
  <!-- ═══════════════════════════════════════════════════ -->
  <g id="workarounds" font-size="10" fill="#54514D">
    <text x="175" y="775">What users do to fulfill their</text>
    <text x="175" y="790">unmet needs</text>
    <text x="355" y="775">What users do to fulfill their</text>
    <text x="355" y="790">unmet needs</text>
    <text x="535" y="775">What users do to fulfill their</text>
    <text x="535" y="790">unmet needs</text>
    <text x="715" y="775">What users do to fulfill their</text>
    <text x="715" y="790">unmet needs</text>
    <text x="895" y="775">What users do to fulfill their</text>
    <text x="895" y="790">unmet needs</text>
    <text x="1075" y="775">What users do to fulfill their</text>
    <text x="1075" y="790">unmet needs</text>
    <text x="1255" y="775">What users do to fulfill their</text>
    <text x="1255" y="790">unmet needs</text>
    <text x="1435" y="775">What users do to fulfill their</text>
    <text x="1435" y="790">unmet needs</text>
    <text x="1615" y="775">What users do to fulfill their</text>
    <text x="1615" y="790">unmet needs</text>
    <text x="1795" y="775">What users do to fulfill their</text>
    <text x="1795" y="790">unmet needs</text>
    <text x="1975" y="775">What users do to fulfill their</text>
    <text x="1975" y="790">unmet needs</text>
  </g>

  <!-- ═══════════════════════════════════════════════════ -->
  <!-- TOUCHPOINTS ROW -->
  <!-- ═══════════════════════════════════════════════════ -->
  <g id="touchpoints" font-size="10" fill="#54514D">
    <text x="250" y="878" text-anchor="middle">📱 Mobile App</text>
    <text x="430" y="878" text-anchor="middle">💻 Website</text>
    <text x="610" y="878" text-anchor="middle">📧 Email</text>
    <text x="790" y="878" text-anchor="middle">💻 Website</text>
    <text x="970" y="878" text-anchor="middle">📞 Phone</text>
    <text x="1150" y="878" text-anchor="middle">💻 Website</text>
    <text x="1330" y="878" text-anchor="middle">📱 Mobile App</text>
    <text x="1510" y="878" text-anchor="middle">💻 Website</text>
    <text x="1690" y="878" text-anchor="middle">📧 Email</text>
    <text x="1870" y="878" text-anchor="middle">📞 Phone</text>
    <text x="2050" y="878" text-anchor="middle">💻 Website</text>
  </g>

  <!-- ═══════════════════════════════════════════════════ -->
  <!-- METRICS / KPIs ROW -->
  <!-- ═══════════════════════════════════════════════════ -->
  <g id="metrics-kpis">
    <!-- Step 1 -->
    <g transform="translate(190, 950)">
      <rect width="120" height="52" rx="6" fill="#FFFFFF" stroke="#EBE6DD" stroke-width="0.75"/>
      <text x="60" y="20" font-size="16" font-weight="700" fill="#805AA1" text-anchor="middle">45%</text>
      <text x="60" y="38" font-size="8" font-weight="400" fill="#6B6760" text-anchor="middle">Bounce Rate</text>
    </g>
    <!-- Step 2 -->
    <g transform="translate(370, 950)">
      <rect width="120" height="52" rx="6" fill="#FFFFFF" stroke="#EBE6DD" stroke-width="0.75"/>
      <text x="60" y="20" font-size="16" font-weight="700" fill="#013D5B" text-anchor="middle">3.2m</text>
      <text x="60" y="38" font-size="8" font-weight="400" fill="#6B6760" text-anchor="middle">Avg Session</text>
    </g>
    <!-- Step 3 -->
    <g transform="translate(550, 950)">
      <rect width="120" height="52" rx="6" fill="#FFFFFF" stroke="#EBE6DD" stroke-width="0.75"/>
      <text x="60" y="20" font-size="16" font-weight="700" fill="#013D5B" text-anchor="middle">68%</text>
      <text x="60" y="38" font-size="8" font-weight="400" fill="#6B6760" text-anchor="middle">Signup Rate</text>
    </g>
    <!-- Step 4 -->
    <text x="790" y="982" font-size="10" fill="#B0ABA2" text-anchor="middle">—</text>
    <!-- Step 5 -->
    <g transform="translate(910, 950)">
      <rect width="120" height="52" rx="6" fill="#FFFFFF" stroke="#EBE6DD" stroke-width="0.75"/>
      <text x="60" y="20" font-size="16" font-weight="700" fill="#CF6253" text-anchor="middle">2.1</text>
      <text x="60" y="38" font-size="8" font-weight="400" fill="#6B6760" text-anchor="middle">CSAT Score</text>
    </g>
    <!-- Step 6 -->
    <text x="1150" y="982" font-size="10" fill="#B0ABA2" text-anchor="middle">—</text>
    <!-- Step 7 -->
    <g transform="translate(1270, 950)">
      <rect width="120" height="52" rx="6" fill="#FFFFFF" stroke="#EBE6DD" stroke-width="0.75"/>
      <text x="60" y="20" font-size="16" font-weight="700" fill="#7A9A01" text-anchor="middle">82%</text>
      <text x="60" y="38" font-size="8" font-weight="400" fill="#6B6760" text-anchor="middle">Completion</text>
    </g>
    <!-- Step 8 -->
    <text x="1510" y="982" font-size="10" fill="#B0ABA2" text-anchor="middle">—</text>
    <!-- Step 9 -->
    <text x="1690" y="982" font-size="10" fill="#B0ABA2" text-anchor="middle">—</text>
    <!-- Step 10 -->
    <g transform="translate(1810, 950)">
      <rect width="120" height="52" rx="6" fill="#FFFFFF" stroke="#EBE6DD" stroke-width="0.75"/>
      <text x="60" y="20" font-size="16" font-weight="700" fill="#7A9A01" text-anchor="middle">4.5</text>
      <text x="60" y="38" font-size="8" font-weight="400" fill="#6B6760" text-anchor="middle">NPS Score</text>
    </g>
    <!-- Step 11 -->
    <g transform="translate(1990, 950)">
      <rect width="120" height="52" rx="6" fill="#FFFFFF" stroke="#EBE6DD" stroke-width="0.75"/>
      <text x="60" y="20" font-size="16" font-weight="700" fill="#013D5B" text-anchor="middle">91%</text>
      <text x="60" y="38" font-size="8" font-weight="400" fill="#6B6760" text-anchor="middle">Retention</text>
    </g>
  </g>

  <!-- ═══════════════════════════════════════════════════ -->
  <!-- RELIANCE ON SUPPORT BARS -->
  <!-- ═══════════════════════════════════════════════════ -->
  <g id="reliance-bars">
    <!-- Step 1: Heavy -->
    <rect x="175" y="1060" width="150" height="8" rx="4" fill="#1C1A17"/>
    <text x="250" y="1085" font-size="9" fill="#6B6760" text-anchor="middle">Heavy</text>

    <!-- Step 2: Medium -->
    <rect x="355" y="1060" width="150" height="8" rx="4" fill="#54514D"/>
    <text x="430" y="1085" font-size="9" fill="#6B6760" text-anchor="middle">Medium</text>

    <!-- Step 3: Light -->
    <rect x="535" y="1060" width="150" height="8" rx="4" fill="#B0ABA2"/>
    <text x="610" y="1085" font-size="9" fill="#6B6760" text-anchor="middle">Light</text>

    <!-- Step 4: Medium -->
    <rect x="715" y="1060" width="150" height="8" rx="4" fill="#54514D"/>
    <text x="790" y="1085" font-size="9" fill="#6B6760" text-anchor="middle">Medium</text>

    <!-- Step 5: Heavy -->
    <rect x="895" y="1060" width="150" height="8" rx="4" fill="#1C1A17"/>
    <text x="970" y="1085" font-size="9" fill="#6B6760" text-anchor="middle">Heavy</text>

    <!-- Step 6: Light -->
    <rect x="1075" y="1060" width="150" height="8" rx="4" fill="#B0ABA2"/>
    <text x="1150" y="1085" font-size="9" fill="#6B6760" text-anchor="middle">Light</text>

    <!-- Step 7: Medium -->
    <rect x="1255" y="1060" width="150" height="8" rx="4" fill="#54514D"/>
    <text x="1330" y="1085" font-size="9" fill="#6B6760" text-anchor="middle">Medium</text>

    <!-- Step 8: Light -->
    <rect x="1435" y="1060" width="150" height="8" rx="4" fill="#B0ABA2"/>
    <text x="1510" y="1085" font-size="9" fill="#6B6760" text-anchor="middle">Light</text>

    <!-- Step 9: Medium -->
    <rect x="1615" y="1060" width="150" height="8" rx="4" fill="#54514D"/>
    <text x="1690" y="1085" font-size="9" fill="#6B6760" text-anchor="middle">Medium</text>

    <!-- Step 10: Light -->
    <rect x="1795" y="1060" width="150" height="8" rx="4" fill="#B0ABA2"/>
    <text x="1870" y="1085" font-size="9" fill="#6B6760" text-anchor="middle">Light</text>

    <!-- Step 11: Medium -->
    <rect x="1975" y="1060" width="150" height="8" rx="4" fill="#54514D"/>
    <text x="2050" y="1085" font-size="9" fill="#6B6760" text-anchor="middle">Medium</text>
  </g>

  <!-- ═══════════════════════════════════════════════════ -->
  <!-- ROLE LEGEND (top right) -->
  <!-- ═══════════════════════════════════════════════════ -->
  <g id="role-legend" transform="translate(1980, 40)">
    <text x="0" y="0" font-size="9" font-weight="600" fill="#6B6760">Roles:</text>
    <circle cx="8" cy="14" r="5" fill="#013D5B"/>
    <text x="18" y="17" font-size="9" fill="#6B6760">A</text>
    <circle cx="38" cy="14" r="5" fill="#4A6E82"/>
    <text x="48" y="17" font-size="9" fill="#6B6760">B</text>
    <circle cx="68" cy="14" r="5" fill="#5C7A3D"/>
    <text x="78" y="17" font-size="9" fill="#6B6760">C</text>
    <circle cx="98" cy="14" r="5" fill="#805AA1"/>
    <text x="108" y="17" font-size="9" fill="#6B6760">D</text>
  </g>
</svg>